<?xml version="1.0" encoding="UTF-8"?>
<svg version="1.1" xmlns="http://www.w3.org/2000/svg" width="512" height="512">
<path d="M0 0 C5.98907261 4.73536007 11.72743676 9.76945963 17.46484375 14.8046875 C21.34019822 18.19753534 25.31828498 21.45331394 29.3203125 24.6953125 C32.43250041 27.24003595 35.49979874 29.83364381 38.5625 32.4375 C42.50896124 35.79202096 46.47892235 39.10971962 50.5 42.375 C55.36379025 46.33258188 60.12131231 50.40292446 64.87084961 54.49584961 C68.39548919 57.52695289 71.95289882 60.50735316 75.5625 63.4375 C79.7904248 66.86958013 83.9377789 70.38301171 88.0625 73.9375 C93.07841689 78.25922863 98.15425299 82.49229196 103.29296875 86.66796875 C109.17049411 91.48438939 114.93861914 96.432443 120.72851562 101.35351562 C126.28318034 106.0726961 131.84309925 110.77825049 137.5 115.375 C142.36299424 119.33193418 147.11950203 123.40185942 151.86865234 127.49365234 C156.28281766 131.28913367 160.76583198 134.99027913 165.28515625 138.66015625 C168.97009143 141.68169944 172.59818321 144.76785951 176.22900391 147.85400391 C179.62223475 150.73307843 183.0452672 153.56961492 186.5 156.375 C188.35469096 157.89519391 190.20881516 159.41607942 192.0625 160.9375 C192.63709961 161.4030127 193.21169922 161.86852539 193.80371094 162.34814453 C202.80139479 169.66203736 210.90515442 176.30002713 214.0625 187.9375 C215.14115743 200.51765579 214.32723837 211.14032003 206.0625 221.25 C199.50793907 228.06500706 190.92463224 232.64670519 181.38354492 233.05102539 C180.44615479 233.04578857 179.50876465 233.04055176 178.54296875 233.03515625 C177.52138672 233.03193359 176.49980469 233.02871094 175.44726562 233.02539062 C174.39216797 233.01701172 173.33707031 233.00863281 172.25 233 C171.17556641 232.99548828 170.10113281 232.99097656 168.99414062 232.98632812 C166.35020317 232.97457729 163.70638048 232.95814787 161.0625 232.9375 C161.06618717 233.90656941 161.06987434 234.87563883 161.07367325 235.87407398 C161.16256012 259.47812502 161.22824507 283.08215429 161.26974869 306.68633747 C161.29035416 318.10125498 161.3184363 329.51606177 161.36425781 340.9309082 C161.40418718 350.8826946 161.42994745 360.83440079 161.43885398 370.78626508 C161.44405837 376.05335909 161.4562487 381.3202237 161.48542023 386.58724403 C161.51268567 391.55059473 161.52092255 396.51362276 161.51493073 401.47704124 C161.516026 403.29301587 161.52391328 405.10900192 161.5393219 406.9249115 C161.64957258 420.59510883 160.62862982 431.3701832 150.70703125 441.703125 C144.15753147 447.23682348 136.16052449 451.06789674 127.51934814 451.05775452 C126.16062843 451.05981651 126.16062843 451.05981651 124.77445984 451.06192017 C123.78831192 451.05832489 122.802164 451.05472961 121.78613281 451.05102539 C120.74191666 451.05117142 119.6977005 451.05131744 118.62184143 451.0514679 C115.16974817 451.05077113 111.71770884 451.04298973 108.265625 451.03515625 C105.87237579 451.03329123 103.47912619 451.03186772 101.08587646 451.03086853 C94.78614244 451.02704996 88.48643146 451.01722527 82.18670654 451.00616455 C75.75858878 450.99593627 69.3304673 450.99136787 62.90234375 450.98632812 C50.28905267 450.97560244 37.67577756 450.95872606 25.0625 450.9375 C25.06103344 450.29772469 25.05956688 449.65794937 25.05805588 448.99878693 C25.02084896 433.36246602 24.96165244 417.72640146 24.87859726 402.09026337 C24.8389497 394.52843414 24.80648527 386.96670682 24.79150391 379.40478516 C24.77841268 372.8064396 24.75126035 366.20831964 24.70788693 359.61010122 C24.68543806 356.12302257 24.66957919 352.63622041 24.67061615 349.14906311 C24.67012894 324.6584115 22.77959034 302.85099113 4.88671875 284.4375 C-8.89562795 272.23735908 -26.20654357 265.24595596 -44.71875 265.69921875 C-64.1131744 267.13497104 -80.73769371 275.38285393 -93.625 290 C-104.41231379 303.80394313 -108.39166672 319.7469404 -108.36987305 337.0715332 C-108.38516052 338.93243591 -108.38516052 338.93243591 -108.40075684 340.83093262 C-108.42553112 344.18762123 -108.43756703 347.54387444 -108.44361091 350.90061593 C-108.45307901 354.42536211 -108.47928817 357.94998587 -108.50361633 361.47465515 C-108.54705547 368.12885782 -108.57574034 374.78303643 -108.59893972 381.4373371 C-108.62611353 389.02160434 -108.67001676 396.60574703 -108.71522844 404.18992484 C-108.80775064 419.77238558 -108.87957865 435.35486986 -108.9375 450.9375 C-122.69853131 451.03037571 -136.45948746 451.10135434 -150.22076893 451.14474869 C-156.61140363 451.16558082 -163.00182312 451.19381891 -169.39233398 451.23925781 C-175.5650359 451.28287097 -181.73753143 451.30666998 -187.9103756 451.31700897 C-190.2597853 451.32437256 -192.60918431 451.33875168 -194.95850563 451.36042023 C-198.26139951 451.38965918 -201.56345163 451.39344737 -204.86645508 451.39160156 C-205.82743607 451.40598267 -206.78841705 451.42036377 -207.77851868 451.43518066 C-219.33757512 451.36575003 -228.24577436 447.11686614 -236.62109375 439.3828125 C-246.06956569 429.53378189 -245.49949604 416.96270402 -245.39160156 404.24731445 C-245.39047158 402.3737948 -245.39110988 400.50027339 -245.39337158 398.62675476 C-245.39451379 393.56955875 -245.37108467 388.5127464 -245.34307575 383.45563912 C-245.31797951 378.15991454 -245.31571363 372.86418003 -245.31097412 367.56840515 C-245.29856845 357.5530516 -245.26577951 347.53787383 -245.22557616 337.52259749 C-245.18078336 326.11508731 -245.15885255 314.70756851 -245.13879442 303.2999922 C-245.0970447 279.84573089 -245.02673963 256.39162532 -244.9375 232.9375 C-245.90405518 232.96106567 -245.90405518 232.96106567 -246.89013672 232.98510742 C-249.86416529 233.04820901 -252.83805229 233.08672586 -255.8125 233.125 C-256.82570313 233.15013672 -257.83890625 233.17527344 -258.8828125 233.20117188 C-270.12602454 233.30927968 -279.7103554 230.69703851 -288.0703125 222.96484375 C-296.33422308 214.31975648 -298.55975996 206.26555255 -298.40625 194.55322266 C-297.96221388 183.51476215 -293.8965155 176.50794404 -285.9375 168.9375 C-283.31332379 166.66076145 -280.63813309 164.47362367 -277.91796875 162.3125 C-274.74770616 159.78626192 -271.64989287 157.18861149 -268.5625 154.5625 C-267.74930298 153.87269043 -267.74930298 153.87269043 -266.91967773 153.16894531 C-265.25821022 151.7593342 -263.59771528 150.34858567 -261.9375 148.9375 C-254.92235196 142.97503537 -247.88102709 137.05672061 -240.7421875 131.2421875 C-235.42137304 126.86993049 -230.18483664 122.39742856 -224.9375 117.9375 C-217.92235196 111.97503537 -210.88102709 106.05672061 -203.7421875 100.2421875 C-198.42137304 95.86993049 -193.18483664 91.39742856 -187.9375 86.9375 C-180.92235196 80.97503537 -173.88102709 75.05672061 -166.7421875 69.2421875 C-161.42137304 64.86993049 -156.18483664 60.39742856 -150.9375 55.9375 C-143.92235196 49.97503537 -136.88102709 44.05672061 -129.7421875 38.2421875 C-124.42137304 33.86993049 -119.18483664 29.39742856 -113.9375 24.9375 C-80.95029408 -3.09969143 -42.04163044 -30.67294322 0 0 Z " fill="#3089DD" transform="translate(297.9375,37.0625)"/>
</svg>
